<svg width="141" height="66" viewBox="0 0 141 66" fill="none" xmlns="http://www.w3.org/2000/svg">
<path d="M59.1992 64.5963V33.5283H73.4639C82.0872 33.5283 87.7689 38.4847 87.7689 45.1335C87.7689 51.7823 82.0872 56.7386 73.4639 56.7386H71.0059V64.5963H59.1992ZM71.0059 48.5989H72.2953C74.1892 48.5989 75.4787 47.108 75.4787 45.0932C75.4787 43.0784 74.1892 41.5472 72.2953 41.5472H71.0059V48.5989Z" fill="white"/>
<path d="M110.379 33.5283V42.1113H98.8144V44.8111H109.694V53.3941H98.8144V56.0133H110.379V64.5963H87.0078V33.5283H110.379Z" fill="white"/>
<path d="M111.391 64.5963V33.5283H126.179C134.923 33.5283 139.839 37.5982 139.839 43.3605C139.839 46.6244 138.026 49.2436 134.682 50.654C136.293 51.7823 137.301 53.4747 137.865 55.8924L138.792 59.8011C139.195 61.5741 139.557 63.2665 140.162 64.5963H128.154C127.872 64.0321 127.469 62.8233 127.025 61.0906L126.139 57.4237C125.776 56.0133 125.131 55.2477 124.124 55.2477H123.197V64.5963H111.391ZM123.197 47.6318H124.688C126.461 47.6318 127.67 46.302 127.67 44.529C127.67 42.5948 126.461 41.2651 124.688 41.2651H123.197V47.6318Z" fill="white"/>
<path d="M110.379 1.02051V9.60348H98.8144V12.3033H109.694V20.8863H98.8144V23.5055H110.379V32.0885H87.0078V1.02051H110.379Z" fill="white"/>
<path d="M111.391 32.0885V1.02051H126.179C134.923 1.02051 139.839 5.09037 139.839 10.8527C139.839 14.1166 138.026 16.7358 134.682 18.1462C136.293 19.2744 137.301 20.9669 137.865 23.3846L138.792 27.2933C139.195 29.0663 139.557 30.7587 140.162 32.0885H128.154C127.872 31.5243 127.469 30.3155 127.025 28.5827L126.139 24.9158C125.776 23.5055 125.131 22.7399 124.124 22.7399H123.197V32.0885H111.391ZM123.197 15.124H124.688C126.461 15.124 127.67 13.7942 127.67 12.0212C127.67 10.087 126.461 8.75727 124.688 8.75727H123.197V15.124Z" fill="white"/>
<path d="M59.1992 32.0885V1.02051H73.4639C82.0872 1.02051 87.7689 5.97687 87.7689 12.6257C87.7689 19.2744 82.0872 24.2308 73.4639 24.2308H71.0059V32.0885H59.1992ZM71.0059 16.0911H72.2953C74.1892 16.0911 75.4787 14.6001 75.4787 12.5854C75.4787 10.5706 74.1892 9.03935 72.2953 9.03935H71.0059V16.0911Z" fill="white"/>
<path d="M44.7908 32.6929C36.2078 32.6929 31.332 29.5498 31.332 23.2234V1.02051H43.2193V22.2966C43.2193 23.9085 43.7834 24.6741 44.7505 24.6741C45.637 24.6741 46.2011 23.9085 46.2011 22.2966V1.02051H58.1689V23.2234C58.1689 29.5498 53.3335 32.6929 44.7908 32.6929Z" fill="white"/>
<path d="M44.7908 65.2007C36.2078 65.2007 31.332 62.0577 31.332 55.7312V33.5283H43.2193V54.8044C43.2193 56.4163 43.7834 57.1819 44.7505 57.1819C45.637 57.1819 46.2011 56.4163 46.2011 54.8044V33.5283H58.1689V55.7312C58.1689 62.0577 53.3335 65.2007 44.7908 65.2007Z" fill="white"/>
<path d="M0.523438 64.5963V33.5283H13.136C24.4591 33.5283 30.4228 38.8876 30.4228 49.2436C30.4228 59.3981 24.4591 64.5963 13.136 64.5963H0.523438ZM12.3301 56.0133H13.7001C16.3596 56.0133 17.9312 53.515 17.9312 49.2436C17.9312 44.7708 16.3596 42.1113 13.7001 42.1113H12.3301V56.0133Z" fill="white"/>
<path d="M15.7199 32.1962C6.06656 32.1962 0.442815 28.3279 0 22.2835L13.1959 22.2432C13.4173 24.4192 14.3915 25.3863 15.5871 25.3863C16.827 25.3863 17.3583 24.7415 17.3583 23.8953C17.3583 22.082 15.5871 21.5179 10.6718 20.2284C3.40967 18.3345 0.177126 15.3526 0.177126 10.5172C0.177126 3.94897 6.46509 0 15.1885 0C24.222 0 29.9343 4.15045 30.1557 9.63066L16.7827 9.59037C16.7384 7.93825 15.8528 6.76967 14.6129 6.76967C13.5501 6.76967 12.8416 7.33381 12.8416 8.26061C12.8416 9.46948 14.4358 9.91273 18.6868 10.9201C27.1002 12.8946 30.3328 15.9571 30.3328 22.0417C30.3328 28.0861 24.222 32.1962 15.7199 32.1962Z" fill="white"/>
</svg>
